<?xml version="1.0" encoding="utf-8"?>
<!DOCTYPE svg PUBLIC "-//W3C//DTD SVG 1.1//EN" "http://www.w3.org/Graphics/SVG/1.1/DTD/svg11.dtd">
<svg xmlns="http://www.w3.org/2000/svg" xmlns:xlink="http://www.w3.org/1999/xlink" x="0px" y="0px" width="72px" height="54px"
	 viewBox="-15 -11.4 72 54" enable-background="new -15 -11.4 72 54" xml:space="preserve">
<path fill="#4ca4ec" d="M46.1,12.6c-0.5-0.1-0.9,0.1-1.1,0.6c-0.1,0.5,0.1,0.9,0.6,1.1c6.7,2.1,9.7,5.3,9.7,10.3
	c0,4.5-4.1,7.9-6.5,9.6c-0.2,0.2-0.4,0.4-0.4,0.7v6.6c-1.3-0.5-3.4-1.5-5.4-3.7c-0.2-0.2-0.5-0.3-0.8-0.3c-0.5,0.1-1,0.2-1.5,0.4
	c-0.9,0.2-1.8,0.5-2.6,0.5c-4.4,0-7.5-0.9-10.6-3.3c-0.4-0.3-0.9-0.2-1.2,0.2c-0.3,0.4-0.2,0.9,0.2,1.2C30,39,33.3,40,38.1,40
	c1.1,0,2.1-0.3,3.1-0.5c0.3-0.1,0.6-0.2,0.9-0.2c3.2,3.4,6.8,4.2,7,4.2c0.1,0,0.1,0,0.2,0c0.2,0,0.4-0.1,0.5-0.2
	c0.2-0.2,0.3-0.4,0.3-0.7v-7.3c4.4-3.2,6.9-7,6.9-10.7C57,18.8,53.5,15,46.1,12.6z M41.6,11.7c0-13.2-12-23.1-28-23.1
	C-2.4-11.4-15-1.3-15,11.7c0,7.8,5.5,13.4,10.3,16.7v11.4c0,0.3,0.1,0.6,0.4,0.7c0.1,0.1,0.3,0.1,0.5,0.1c0.1,0,0.2,0,0.4-0.1
	c0.3-0.1,6.1-2.8,11.1-8.2c2.2,0.4,4.6,0.8,6.8,0.8C30.7,33.2,41.6,24.5,41.6,11.7z M14.4,31.4c-2.2,0-4.8-0.4-7-0.9
	c-0.3-0.1-0.6,0-0.8,0.3c-3.5,4-7.6,6.5-9.6,7.6V28c0-0.3-0.1-0.5-0.4-0.7c-4.5-3.1-9.9-8.3-9.9-15.6c0-12,11.8-21.4,26.9-21.4
	c15,0,26.3,9.2,26.3,21.4C39.9,23.5,29.6,31.4,14.4,31.4z M13.3,8.3c-1.9,0-3.4,1.5-3.4,3.4s1.5,3.4,3.4,3.4c1.9,0,3.4-1.5,3.4-3.4
	S15.2,8.3,13.3,8.3z M13.3,13.4c-0.9,0-1.7-0.8-1.7-1.7c0-0.9,0.8-1.7,1.7-1.7c0.9,0,1.7,0.8,1.7,1.7C15,12.7,14.2,13.4,13.3,13.4z
	 M25.3,8.3c-1.9,0-3.4,1.5-3.4,3.4s1.5,3.4,3.4,3.4s3.4-1.5,3.4-3.4S27.2,8.3,25.3,8.3z M25.3,13.4c-0.9,0-1.7-0.8-1.7-1.7
	c0-0.9,0.8-1.7,1.7-1.7s1.7,0.8,1.7,1.7C27,12.7,26.2,13.4,25.3,13.4z M1.3,8.4c-1.9,0-3.4,1.5-3.4,3.4s1.5,3.4,3.4,3.4
	s3.4-1.5,3.4-3.4S3.2,8.4,1.3,8.4z M1.3,13.6c-0.9,0-1.7-0.8-1.7-1.7c0-0.9,0.8-1.7,1.7-1.7S3,10.9,3,11.9C3,12.8,2.2,13.6,1.3,13.6
	z"/>
</svg>
